<?xml version="1.0" standalone="no"?><!DOCTYPE svg PUBLIC "-//W3C//DTD SVG 1.1//EN" "http://www.w3.org/Graphics/SVG/1.1/DTD/svg11.dtd"><svg t="1639913004510" class="icon" viewBox="0 0 1024 1024" version="1.1" xmlns="http://www.w3.org/2000/svg" p-id="9724" xmlns:xlink="http://www.w3.org/1999/xlink" width="24" height="24"><defs><style type="text/css"></style></defs><path d="M372.893538 1024H94.523077a94.523077 94.523077 0 0 1-94.523077-94.523077V94.523077a94.523077 94.523077 0 0 1 94.523077-94.523077h693.169231a94.523077 94.523077 0 0 1 94.523077 94.523077v236.307692a31.507692 31.507692 0 0 1-63.015385 0V94.523077a31.507692 31.507692 0 0 0-31.507692-31.507692H94.523077a31.507692 31.507692 0 0 0-31.507692 31.507692v834.953846a31.507692 31.507692 0 0 0 31.507692 31.507692h278.370461a31.507692 31.507692 0 0 1 0 63.015385z" p-id="9725" fill="#4CAF50"></path><path d="M661.661538 283.569231H173.292308a31.507692 31.507692 0 0 1 0-63.015385h488.36923a31.507692 31.507692 0 0 1 0 63.015385zM330.830769 519.876923H173.292308a31.507692 31.507692 0 0 1 0-63.015385h157.538461a31.507692 31.507692 0 0 1 0 63.015385zM267.815385 756.184615h-94.523077a31.507692 31.507692 0 0 1 0-63.015384h94.523077a31.507692 31.507692 0 0 1 0 63.015384zM708.923077 1024a315.076923 315.076923 0 1 1 315.076923-315.076923 315.076923 315.076923 0 0 1-315.076923 315.076923z m0-567.138462a252.061538 252.061538 0 1 0 252.061538 252.061539 252.061538 252.061538 0 0 0-252.061538-252.061539z" p-id="9726" fill="#4CAF50"></path><path d="M693.169231 850.707692a31.507692 31.507692 0 0 1-22.212923-9.294769l-110.276923-110.276923a31.507692 31.507692 0 0 1 44.425846-44.425846L693.169231 774.616615l158.956307-158.798769a31.507692 31.507692 0 0 1 44.425847 44.425846l-181.169231 181.169231A31.507692 31.507692 0 0 1 693.169231 850.707692z" p-id="9727" fill="#4CAF50"></path></svg>