<?xml version="1.0" standalone="no"?><!DOCTYPE svg PUBLIC "-//W3C//DTD SVG 1.1//EN" "http://www.w3.org/Graphics/SVG/1.1/DTD/svg11.dtd"><svg t="1639912296625" class="icon" viewBox="0 0 1024 1024" version="1.1" xmlns="http://www.w3.org/2000/svg" p-id="4169" xmlns:xlink="http://www.w3.org/1999/xlink" width="24" height="24"><defs><style type="text/css"></style></defs><path d="M510.977023 1022.977023c-182.601399 0-351.392607-97.182817-442.437562-255.744256-91.044955-157.538462-91.044955-352.415584 0-510.977023C159.584416 98.205794 328.887113 0.511489 510.977023 0.511489c282.341658 0 511.488511 229.146853 511.488511 511.488511S793.318681 1022.977023 510.977023 1022.977023z m0-63.424575c247.048951 0 447.040959-200.503497 447.040959-447.040959s-200.503497-447.040959-447.040959-447.04096c-247.048951 0-447.040959 200.503497-447.040959 447.04096s199.992008 447.040959 447.040959 447.040959z m0 0" p-id="4170" fill="#FF6E40"></path><path d="M652.147852 256.255744c-56.263736-31.200799-122.245754-45.522478-181.578421-34.781219-13.81019 3.58042-24.551449 18.925075-17.39061 33.246754 3.58042 10.22977 13.81019 12.275724 24.551449 12.275724 52.171828-7.160839 104.855145 3.58042 153.446553 31.200799 100.763237 56.775225 150.377622 208.687313 101.274725 314.053946-3.58042 10.22977-10.22977 17.390609-10.22977 17.39061l-70.073926-40.919081 10.741259 170.325674c3.58042 3.58042 169.302697-63.936064 169.302697-63.936064l-68.027972-37.338661 10.22977-20.971029c59.332667-140.147852 6.649351-303.824176-122.245754-380.547453z m-269.042957 463.92008c-98.205794-54.729271-150.377622-228.123876-90.533466-335.024975l71.608391 41.942058-8.695305-167.256743L185.67033 327.352647l68.53946 33.246754c-80.303696 143.216783-24.551449 320.703297 104.855145 397.938062 56.775225 33.246753 123.78022 46.033966 188.227772 34.781218 13.81019-3.58042 20.971029-13.81019 17.39061-28.131868-3.58042-10.22977-13.298701-22.505495-24.551449-22.505494-34.26973 7.160839-125.826174-5.114885-157.026973-22.505495z m0 0" p-id="4171" fill="#FF6E40"></path></svg>